<mxfile host="app.diagrams.net" agent="Mozilla/5.0 (Windows NT 10.0; Win64; x64) AppleWebKit/537.36 (KHTML, like Gecko) Chrome/138.0.0.0 Safari/537.36" version="28.0.3" pages="5">
  <diagram name="Page-1" id="homGyG059NiCS5DsxpEt">
    <mxGraphModel dx="947" dy="569" grid="1" gridSize="10" guides="1" tooltips="1" connect="1" arrows="1" fold="1" page="1" pageScale="1" pageWidth="1169" pageHeight="827" math="0" shadow="0">
      <root>
        <mxCell id="0" />
        <mxCell id="1" parent="0" />
        <mxCell id="iTY73XiMxqBz83YxgavA-2" value="ACTOR" style="rounded=0;whiteSpace=wrap;html=1;" parent="1" vertex="1">
          <mxGeometry x="345" y="234" width="120" height="60" as="geometry" />
        </mxCell>
        <mxCell id="iTY73XiMxqBz83YxgavA-3" value="ACT" style="rhombus;whiteSpace=wrap;html=1;rounded=0;" parent="1" vertex="1">
          <mxGeometry x="565" y="224" width="80" height="80" as="geometry" />
        </mxCell>
        <mxCell id="iTY73XiMxqBz83YxgavA-5" value="MOVIE" style="whiteSpace=wrap;html=1;rounded=0;" parent="1" vertex="1">
          <mxGeometry x="705" y="234" width="120" height="60" as="geometry" />
        </mxCell>
        <mxCell id="iTY73XiMxqBz83YxgavA-12" value="" style="edgeStyle=orthogonalEdgeStyle;rounded=0;orthogonalLoop=1;jettySize=auto;html=1;" parent="1" source="iTY73XiMxqBz83YxgavA-7" target="iTY73XiMxqBz83YxgavA-11" edge="1">
          <mxGeometry relative="1" as="geometry" />
        </mxCell>
        <mxCell id="iTY73XiMxqBz83YxgavA-7" value="PRODUCE" style="rhombus;whiteSpace=wrap;html=1;rounded=0;" parent="1" vertex="1">
          <mxGeometry x="725" y="364" width="80" height="80" as="geometry" />
        </mxCell>
        <mxCell id="iTY73XiMxqBz83YxgavA-11" value="PRODUCTION&lt;div&gt;HOUSES&lt;/div&gt;" style="whiteSpace=wrap;html=1;rounded=0;" parent="1" vertex="1">
          <mxGeometry x="705" y="534" width="120" height="60" as="geometry" />
        </mxCell>
        <mxCell id="iTY73XiMxqBz83YxgavA-23" value="" style="edgeStyle=orthogonalEdgeStyle;rounded=0;orthogonalLoop=1;jettySize=auto;html=1;" parent="1" source="iTY73XiMxqBz83YxgavA-13" target="iTY73XiMxqBz83YxgavA-11" edge="1">
          <mxGeometry relative="1" as="geometry" />
        </mxCell>
        <mxCell id="iTY73XiMxqBz83YxgavA-13" value="HAVE" style="rhombus;whiteSpace=wrap;html=1;rounded=0;" parent="1" vertex="1">
          <mxGeometry x="537" y="524" width="80" height="80" as="geometry" />
        </mxCell>
        <mxCell id="iTY73XiMxqBz83YxgavA-15" value="PRODUCERS" style="whiteSpace=wrap;html=1;rounded=0;" parent="1" vertex="1">
          <mxGeometry x="345" y="534" width="120" height="60" as="geometry" />
        </mxCell>
        <mxCell id="iTY73XiMxqBz83YxgavA-17" value="PAY" style="rhombus;whiteSpace=wrap;html=1;rounded=0;" parent="1" vertex="1">
          <mxGeometry x="365" y="384" width="80" height="80" as="geometry" />
        </mxCell>
        <mxCell id="iTY73XiMxqBz83YxgavA-20" value="" style="endArrow=none;html=1;rounded=0;entryX=1;entryY=0.5;entryDx=0;entryDy=0;exitX=0;exitY=0.5;exitDx=0;exitDy=0;" parent="1" source="iTY73XiMxqBz83YxgavA-3" target="iTY73XiMxqBz83YxgavA-2" edge="1">
          <mxGeometry width="50" height="50" relative="1" as="geometry">
            <mxPoint x="695" y="404" as="sourcePoint" />
            <mxPoint x="745" y="354" as="targetPoint" />
          </mxGeometry>
        </mxCell>
        <mxCell id="iTY73XiMxqBz83YxgavA-21" value="" style="endArrow=none;html=1;rounded=0;entryX=0;entryY=0.5;entryDx=0;entryDy=0;exitX=1;exitY=0.5;exitDx=0;exitDy=0;" parent="1" source="iTY73XiMxqBz83YxgavA-3" target="iTY73XiMxqBz83YxgavA-5" edge="1">
          <mxGeometry width="50" height="50" relative="1" as="geometry">
            <mxPoint x="695" y="404" as="sourcePoint" />
            <mxPoint x="745" y="354" as="targetPoint" />
          </mxGeometry>
        </mxCell>
        <mxCell id="iTY73XiMxqBz83YxgavA-22" value="" style="endArrow=none;html=1;rounded=0;entryX=0.5;entryY=1;entryDx=0;entryDy=0;exitX=0.5;exitY=0;exitDx=0;exitDy=0;" parent="1" source="iTY73XiMxqBz83YxgavA-7" target="iTY73XiMxqBz83YxgavA-5" edge="1">
          <mxGeometry width="50" height="50" relative="1" as="geometry">
            <mxPoint x="695" y="404" as="sourcePoint" />
            <mxPoint x="745" y="354" as="targetPoint" />
          </mxGeometry>
        </mxCell>
        <mxCell id="iTY73XiMxqBz83YxgavA-24" value="" style="endArrow=none;html=1;rounded=0;entryX=1;entryY=0.5;entryDx=0;entryDy=0;exitX=0;exitY=0.5;exitDx=0;exitDy=0;" parent="1" source="iTY73XiMxqBz83YxgavA-13" target="iTY73XiMxqBz83YxgavA-15" edge="1">
          <mxGeometry width="50" height="50" relative="1" as="geometry">
            <mxPoint x="695" y="404" as="sourcePoint" />
            <mxPoint x="745" y="354" as="targetPoint" />
          </mxGeometry>
        </mxCell>
        <mxCell id="iTY73XiMxqBz83YxgavA-25" value="" style="endArrow=none;html=1;rounded=0;exitX=0.5;exitY=1;exitDx=0;exitDy=0;entryX=0.5;entryY=0;entryDx=0;entryDy=0;" parent="1" source="iTY73XiMxqBz83YxgavA-17" target="iTY73XiMxqBz83YxgavA-15" edge="1">
          <mxGeometry width="50" height="50" relative="1" as="geometry">
            <mxPoint x="695" y="404" as="sourcePoint" />
            <mxPoint x="745" y="354" as="targetPoint" />
          </mxGeometry>
        </mxCell>
        <mxCell id="iTY73XiMxqBz83YxgavA-26" value="" style="endArrow=none;html=1;rounded=0;entryX=0.5;entryY=1;entryDx=0;entryDy=0;" parent="1" source="iTY73XiMxqBz83YxgavA-17" target="iTY73XiMxqBz83YxgavA-2" edge="1">
          <mxGeometry width="50" height="50" relative="1" as="geometry">
            <mxPoint x="695" y="404" as="sourcePoint" />
            <mxPoint x="745" y="354" as="targetPoint" />
          </mxGeometry>
        </mxCell>
        <mxCell id="iTY73XiMxqBz83YxgavA-27" value="" style="endArrow=none;html=1;rounded=0;entryX=0.75;entryY=1;entryDx=0;entryDy=0;exitX=0;exitY=0.5;exitDx=0;exitDy=0;" parent="1" source="iTY73XiMxqBz83YxgavA-29" target="iTY73XiMxqBz83YxgavA-2" edge="1">
          <mxGeometry width="50" height="50" relative="1" as="geometry">
            <mxPoint x="505" y="354" as="sourcePoint" />
            <mxPoint x="745" y="354" as="targetPoint" />
          </mxGeometry>
        </mxCell>
        <mxCell id="iTY73XiMxqBz83YxgavA-28" value="AWARD" style="rounded=0;whiteSpace=wrap;html=1;" parent="1" vertex="1">
          <mxGeometry x="639" y="334" width="80" height="40" as="geometry" />
        </mxCell>
        <mxCell id="iTY73XiMxqBz83YxgavA-29" value="GET" style="rhombus;whiteSpace=wrap;html=1;rounded=0;" parent="1" vertex="1">
          <mxGeometry x="479" y="314" width="80" height="80" as="geometry" />
        </mxCell>
        <mxCell id="iTY73XiMxqBz83YxgavA-31" value="" style="endArrow=none;html=1;rounded=0;exitX=1;exitY=0.5;exitDx=0;exitDy=0;entryX=0;entryY=0.5;entryDx=0;entryDy=0;" parent="1" source="iTY73XiMxqBz83YxgavA-29" target="iTY73XiMxqBz83YxgavA-28" edge="1">
          <mxGeometry width="50" height="50" relative="1" as="geometry">
            <mxPoint x="695" y="404" as="sourcePoint" />
            <mxPoint x="635" y="364" as="targetPoint" />
          </mxGeometry>
        </mxCell>
        <mxCell id="iTY73XiMxqBz83YxgavA-33" value="FILM" style="whiteSpace=wrap;html=1;rounded=0;" parent="1" vertex="1">
          <mxGeometry x="476" y="446" width="86" height="30" as="geometry" />
        </mxCell>
        <mxCell id="iTY73XiMxqBz83YxgavA-35" value="" style="endArrow=none;html=1;rounded=0;entryX=0.5;entryY=1;entryDx=0;entryDy=0;exitX=0.5;exitY=0;exitDx=0;exitDy=0;" parent="1" source="iTY73XiMxqBz83YxgavA-33" target="iTY73XiMxqBz83YxgavA-29" edge="1">
          <mxGeometry width="50" height="50" relative="1" as="geometry">
            <mxPoint x="695" y="404" as="sourcePoint" />
            <mxPoint x="745" y="354" as="targetPoint" />
          </mxGeometry>
        </mxCell>
      </root>
    </mxGraphModel>
  </diagram>
  <diagram id="6dzBPU8pyPjTBq2We-XV" name="Page-2">
    <mxGraphModel dx="1603" dy="963" grid="1" gridSize="10" guides="1" tooltips="1" connect="1" arrows="1" fold="1" page="1" pageScale="1" pageWidth="1169" pageHeight="827" math="0" shadow="0">
      <root>
        <mxCell id="0" />
        <mxCell id="1" parent="0" />
        <mxCell id="2LjmfJf9D8yWPnFXgR0l-3" value="" style="edgeStyle=orthogonalEdgeStyle;rounded=0;orthogonalLoop=1;jettySize=auto;html=1;endArrow=none;endFill=0;" parent="1" source="2LjmfJf9D8yWPnFXgR0l-1" target="2LjmfJf9D8yWPnFXgR0l-2" edge="1">
          <mxGeometry relative="1" as="geometry" />
        </mxCell>
        <mxCell id="2LjmfJf9D8yWPnFXgR0l-17" value="" style="edgeStyle=orthogonalEdgeStyle;rounded=0;orthogonalLoop=1;jettySize=auto;html=1;endArrow=none;endFill=0;" parent="1" source="2LjmfJf9D8yWPnFXgR0l-1" target="2LjmfJf9D8yWPnFXgR0l-16" edge="1">
          <mxGeometry relative="1" as="geometry" />
        </mxCell>
        <mxCell id="2LjmfJf9D8yWPnFXgR0l-1" value="STUDENT" style="rounded=0;whiteSpace=wrap;html=1;" parent="1" vertex="1">
          <mxGeometry x="160" y="210" width="200" height="60" as="geometry" />
        </mxCell>
        <mxCell id="2LjmfJf9D8yWPnFXgR0l-7" value="" style="edgeStyle=orthogonalEdgeStyle;rounded=0;orthogonalLoop=1;jettySize=auto;html=1;endArrow=none;endFill=0;" parent="1" source="2LjmfJf9D8yWPnFXgR0l-2" target="2LjmfJf9D8yWPnFXgR0l-6" edge="1">
          <mxGeometry relative="1" as="geometry" />
        </mxCell>
        <mxCell id="2LjmfJf9D8yWPnFXgR0l-2" value="TAKE" style="rhombus;whiteSpace=wrap;html=1;rounded=0;" parent="1" vertex="1">
          <mxGeometry x="500" y="200" width="80" height="80" as="geometry" />
        </mxCell>
        <mxCell id="2LjmfJf9D8yWPnFXgR0l-9" value="" style="edgeStyle=orthogonalEdgeStyle;rounded=0;orthogonalLoop=1;jettySize=auto;html=1;endArrow=none;endFill=0;" parent="1" source="2LjmfJf9D8yWPnFXgR0l-6" target="2LjmfJf9D8yWPnFXgR0l-8" edge="1">
          <mxGeometry relative="1" as="geometry" />
        </mxCell>
        <mxCell id="2LjmfJf9D8yWPnFXgR0l-13" value="" style="edgeStyle=orthogonalEdgeStyle;rounded=0;orthogonalLoop=1;jettySize=auto;html=1;endArrow=none;endFill=0;" parent="1" source="2LjmfJf9D8yWPnFXgR0l-6" target="2LjmfJf9D8yWPnFXgR0l-12" edge="1">
          <mxGeometry relative="1" as="geometry" />
        </mxCell>
        <mxCell id="2LjmfJf9D8yWPnFXgR0l-6" value="BOOKS" style="whiteSpace=wrap;html=1;rounded=0;" parent="1" vertex="1">
          <mxGeometry x="640" y="210" width="120" height="60" as="geometry" />
        </mxCell>
        <mxCell id="2LjmfJf9D8yWPnFXgR0l-11" value="" style="edgeStyle=orthogonalEdgeStyle;rounded=0;orthogonalLoop=1;jettySize=auto;html=1;endArrow=none;endFill=0;" parent="1" source="2LjmfJf9D8yWPnFXgR0l-8" target="2LjmfJf9D8yWPnFXgR0l-10" edge="1">
          <mxGeometry relative="1" as="geometry" />
        </mxCell>
        <mxCell id="2LjmfJf9D8yWPnFXgR0l-8" value="DONATE" style="rhombus;whiteSpace=wrap;html=1;rounded=0;" parent="1" vertex="1">
          <mxGeometry x="860" y="200" width="80" height="80" as="geometry" />
        </mxCell>
        <mxCell id="2LjmfJf9D8yWPnFXgR0l-10" value="ALUMINI" style="whiteSpace=wrap;html=1;rounded=0;" parent="1" vertex="1">
          <mxGeometry x="1000" y="210" width="120" height="60" as="geometry" />
        </mxCell>
        <mxCell id="2LjmfJf9D8yWPnFXgR0l-15" value="" style="edgeStyle=orthogonalEdgeStyle;rounded=0;orthogonalLoop=1;jettySize=auto;html=1;endArrow=none;endFill=0;" parent="1" source="2LjmfJf9D8yWPnFXgR0l-12" target="2LjmfJf9D8yWPnFXgR0l-14" edge="1">
          <mxGeometry relative="1" as="geometry" />
        </mxCell>
        <mxCell id="2LjmfJf9D8yWPnFXgR0l-12" value="TAKEN" style="rhombus;whiteSpace=wrap;html=1;rounded=0;" parent="1" vertex="1">
          <mxGeometry x="660" y="340" width="80" height="80" as="geometry" />
        </mxCell>
        <mxCell id="2LjmfJf9D8yWPnFXgR0l-14" value="SUPPLIES" style="whiteSpace=wrap;html=1;rounded=0;" parent="1" vertex="1">
          <mxGeometry x="640" y="510" width="120" height="60" as="geometry" />
        </mxCell>
        <mxCell id="2LjmfJf9D8yWPnFXgR0l-16" value="FROM" style="rhombus;whiteSpace=wrap;html=1;rounded=0;" parent="1" vertex="1">
          <mxGeometry y="280" width="80" height="80" as="geometry" />
        </mxCell>
        <mxCell id="2LjmfJf9D8yWPnFXgR0l-22" value="" style="edgeStyle=orthogonalEdgeStyle;rounded=0;orthogonalLoop=1;jettySize=auto;html=1;entryX=0.5;entryY=1;entryDx=0;entryDy=0;exitX=-0.023;exitY=0.63;exitDx=0;exitDy=0;exitPerimeter=0;endArrow=none;endFill=0;" parent="1" source="2LjmfJf9D8yWPnFXgR0l-18" target="2LjmfJf9D8yWPnFXgR0l-16" edge="1">
          <mxGeometry relative="1" as="geometry">
            <mxPoint x="100" y="430" as="targetPoint" />
            <Array as="points">
              <mxPoint x="40" y="644" />
            </Array>
          </mxGeometry>
        </mxCell>
        <mxCell id="2LjmfJf9D8yWPnFXgR0l-24" value="" style="edgeStyle=orthogonalEdgeStyle;rounded=0;orthogonalLoop=1;jettySize=auto;html=1;endArrow=none;endFill=0;" parent="1" source="2LjmfJf9D8yWPnFXgR0l-18" target="2LjmfJf9D8yWPnFXgR0l-23" edge="1">
          <mxGeometry relative="1" as="geometry" />
        </mxCell>
        <mxCell id="2LjmfJf9D8yWPnFXgR0l-18" value="DEPARTMENTS&amp;nbsp;" style="whiteSpace=wrap;html=1;rounded=0;" parent="1" vertex="1">
          <mxGeometry x="108" y="606" width="120" height="60" as="geometry" />
        </mxCell>
        <mxCell id="2LjmfJf9D8yWPnFXgR0l-26" value="" style="edgeStyle=orthogonalEdgeStyle;rounded=0;orthogonalLoop=1;jettySize=auto;html=1;endArrow=none;endFill=0;" parent="1" source="2LjmfJf9D8yWPnFXgR0l-23" target="2LjmfJf9D8yWPnFXgR0l-25" edge="1">
          <mxGeometry relative="1" as="geometry" />
        </mxCell>
        <mxCell id="2LjmfJf9D8yWPnFXgR0l-23" value="FROM" style="rhombus;whiteSpace=wrap;html=1;rounded=0;" parent="1" vertex="1">
          <mxGeometry x="128" y="456" width="80" height="80" as="geometry" />
        </mxCell>
        <mxCell id="2LjmfJf9D8yWPnFXgR0l-28" value="" style="edgeStyle=orthogonalEdgeStyle;rounded=0;orthogonalLoop=1;jettySize=auto;html=1;endArrow=none;endFill=0;" parent="1" source="2LjmfJf9D8yWPnFXgR0l-25" target="2LjmfJf9D8yWPnFXgR0l-27" edge="1">
          <mxGeometry relative="1" as="geometry" />
        </mxCell>
        <mxCell id="2LjmfJf9D8yWPnFXgR0l-25" value="TEACHER&amp;nbsp;" style="whiteSpace=wrap;html=1;rounded=0;" parent="1" vertex="1">
          <mxGeometry x="108" y="325" width="120" height="60" as="geometry" />
        </mxCell>
        <mxCell id="2LjmfJf9D8yWPnFXgR0l-30" value="" style="edgeStyle=orthogonalEdgeStyle;rounded=0;orthogonalLoop=1;jettySize=auto;html=1;entryX=0.25;entryY=1;entryDx=0;entryDy=0;endArrow=none;endFill=0;" parent="1" source="2LjmfJf9D8yWPnFXgR0l-27" target="2LjmfJf9D8yWPnFXgR0l-6" edge="1">
          <mxGeometry relative="1" as="geometry">
            <mxPoint x="468" y="355" as="targetPoint" />
          </mxGeometry>
        </mxCell>
        <mxCell id="2LjmfJf9D8yWPnFXgR0l-27" value="TAKES" style="rhombus;whiteSpace=wrap;html=1;rounded=0;" parent="1" vertex="1">
          <mxGeometry x="328" y="315" width="80" height="80" as="geometry" />
        </mxCell>
      </root>
    </mxGraphModel>
  </diagram>
  <diagram id="vPZIq9IS-zKk4XjnJfbT" name="Page-3">
    <mxGraphModel dx="1158" dy="1096" grid="0" gridSize="10" guides="1" tooltips="1" connect="1" arrows="1" fold="1" page="0" pageScale="1" pageWidth="1169" pageHeight="827" math="0" shadow="0">
      <root>
        <mxCell id="0" />
        <mxCell id="1" parent="0" />
        <mxCell id="cXjZimXp5NfksOdig7J9-1" value="" style="rounded=0;whiteSpace=wrap;html=1;" vertex="1" parent="1">
          <mxGeometry x="140" y="-109" width="120" height="60" as="geometry" />
        </mxCell>
        <mxCell id="cXjZimXp5NfksOdig7J9-2" value="CUSTOMER" style="rounded=0;whiteSpace=wrap;html=1;" vertex="1" parent="1">
          <mxGeometry x="140" y="-109" width="120" height="60" as="geometry" />
        </mxCell>
        <mxCell id="cXjZimXp5NfksOdig7J9-6" value="" style="edgeStyle=none;curved=1;rounded=0;orthogonalLoop=1;jettySize=auto;html=1;fontSize=12;startSize=8;endSize=8;endArrow=none;endFill=0;" edge="1" parent="1" source="cXjZimXp5NfksOdig7J9-3" target="cXjZimXp5NfksOdig7J9-5">
          <mxGeometry relative="1" as="geometry" />
        </mxCell>
        <mxCell id="cXjZimXp5NfksOdig7J9-3" value="BUYS" style="rhombus;whiteSpace=wrap;html=1;rounded=0;" vertex="1" parent="1">
          <mxGeometry x="400" y="-119" width="80" height="80" as="geometry" />
        </mxCell>
        <mxCell id="cXjZimXp5NfksOdig7J9-5" value="PRODUCTS" style="whiteSpace=wrap;html=1;rounded=0;" vertex="1" parent="1">
          <mxGeometry x="580" y="-109" width="120" height="60" as="geometry" />
        </mxCell>
        <mxCell id="cXjZimXp5NfksOdig7J9-7" value="&lt;u&gt;CUSTOMER ID&lt;/u&gt;" style="ellipse;whiteSpace=wrap;html=1;" vertex="1" parent="1">
          <mxGeometry x="55" y="-213" width="124" height="53" as="geometry" />
        </mxCell>
        <mxCell id="cXjZimXp5NfksOdig7J9-8" value="NAME" style="ellipse;whiteSpace=wrap;html=1;" vertex="1" parent="1">
          <mxGeometry x="205" y="-213" width="124" height="53" as="geometry" />
        </mxCell>
        <mxCell id="cXjZimXp5NfksOdig7J9-16" style="edgeStyle=none;curved=1;rounded=0;orthogonalLoop=1;jettySize=auto;html=1;exitX=0.5;exitY=1;exitDx=0;exitDy=0;entryX=0.25;entryY=0;entryDx=0;entryDy=0;fontSize=12;startSize=8;endSize=8;endArrow=none;endFill=0;" edge="1" parent="1" source="cXjZimXp5NfksOdig7J9-9" target="cXjZimXp5NfksOdig7J9-5">
          <mxGeometry relative="1" as="geometry" />
        </mxCell>
        <mxCell id="cXjZimXp5NfksOdig7J9-9" value="&lt;u&gt;PRODUCT ID&lt;/u&gt;" style="ellipse;whiteSpace=wrap;html=1;" vertex="1" parent="1">
          <mxGeometry x="505" y="-213" width="124" height="53" as="geometry" />
        </mxCell>
        <mxCell id="cXjZimXp5NfksOdig7J9-17" style="edgeStyle=none;curved=1;rounded=0;orthogonalLoop=1;jettySize=auto;html=1;exitX=0.5;exitY=1;exitDx=0;exitDy=0;entryX=0.75;entryY=0;entryDx=0;entryDy=0;fontSize=12;startSize=8;endSize=8;endArrow=none;endFill=0;" edge="1" parent="1" source="cXjZimXp5NfksOdig7J9-10" target="cXjZimXp5NfksOdig7J9-5">
          <mxGeometry relative="1" as="geometry" />
        </mxCell>
        <mxCell id="cXjZimXp5NfksOdig7J9-10" value="CATEGORY" style="ellipse;whiteSpace=wrap;html=1;" vertex="1" parent="1">
          <mxGeometry x="670" y="-213" width="124" height="53" as="geometry" />
        </mxCell>
        <mxCell id="cXjZimXp5NfksOdig7J9-11" value="" style="endArrow=none;html=1;rounded=0;fontSize=12;startSize=8;endSize=8;curved=1;entryX=0.5;entryY=1;entryDx=0;entryDy=0;exitX=0.25;exitY=0;exitDx=0;exitDy=0;" edge="1" parent="1" source="cXjZimXp5NfksOdig7J9-2" target="cXjZimXp5NfksOdig7J9-7">
          <mxGeometry width="50" height="50" relative="1" as="geometry">
            <mxPoint x="175" y="-53" as="sourcePoint" />
            <mxPoint x="225" y="-103" as="targetPoint" />
          </mxGeometry>
        </mxCell>
        <mxCell id="cXjZimXp5NfksOdig7J9-13" value="" style="endArrow=none;html=1;rounded=0;fontSize=12;startSize=8;endSize=8;curved=1;entryX=0.5;entryY=1;entryDx=0;entryDy=0;exitX=0.75;exitY=0;exitDx=0;exitDy=0;" edge="1" parent="1" source="cXjZimXp5NfksOdig7J9-2" target="cXjZimXp5NfksOdig7J9-8">
          <mxGeometry width="50" height="50" relative="1" as="geometry">
            <mxPoint x="175" y="-53" as="sourcePoint" />
            <mxPoint x="225" y="-103" as="targetPoint" />
          </mxGeometry>
        </mxCell>
        <mxCell id="cXjZimXp5NfksOdig7J9-14" value="" style="endArrow=none;html=1;rounded=0;fontSize=12;startSize=8;endSize=8;curved=1;entryX=0;entryY=0.5;entryDx=0;entryDy=0;exitX=1;exitY=0.5;exitDx=0;exitDy=0;" edge="1" parent="1" source="cXjZimXp5NfksOdig7J9-2" target="cXjZimXp5NfksOdig7J9-3">
          <mxGeometry width="50" height="50" relative="1" as="geometry">
            <mxPoint x="175" y="-53" as="sourcePoint" />
            <mxPoint x="225" y="-103" as="targetPoint" />
          </mxGeometry>
        </mxCell>
        <mxCell id="cXjZimXp5NfksOdig7J9-15" style="edgeStyle=none;curved=1;rounded=0;orthogonalLoop=1;jettySize=auto;html=1;exitX=1;exitY=1;exitDx=0;exitDy=0;fontSize=12;startSize=8;endSize=8;" edge="1" parent="1" source="cXjZimXp5NfksOdig7J9-9" target="cXjZimXp5NfksOdig7J9-9">
          <mxGeometry relative="1" as="geometry" />
        </mxCell>
      </root>
    </mxGraphModel>
  </diagram>
  <diagram id="ce74YgcfD50x_et75hD-" name="Page-4">
    <mxGraphModel dx="1042" dy="1026" grid="0" gridSize="10" guides="1" tooltips="1" connect="1" arrows="1" fold="1" page="0" pageScale="1" pageWidth="1169" pageHeight="827" math="0" shadow="0">
      <root>
        <mxCell id="0" />
        <mxCell id="1" parent="0" />
        <mxCell id="t8O8MiKSA82UMRmncftp-1" value="OWNER" style="rounded=0;whiteSpace=wrap;html=1;" vertex="1" parent="1">
          <mxGeometry x="140" y="-109" width="120" height="60" as="geometry" />
        </mxCell>
        <mxCell id="t8O8MiKSA82UMRmncftp-2" value="" style="edgeStyle=none;curved=1;rounded=0;orthogonalLoop=1;jettySize=auto;html=1;fontSize=12;startSize=8;endSize=8;endArrow=none;endFill=0;" edge="1" parent="1" source="t8O8MiKSA82UMRmncftp-3" target="t8O8MiKSA82UMRmncftp-4">
          <mxGeometry relative="1" as="geometry" />
        </mxCell>
        <mxCell id="t8O8MiKSA82UMRmncftp-3" value="PAYS" style="rhombus;whiteSpace=wrap;html=1;rounded=0;" vertex="1" parent="1">
          <mxGeometry x="400" y="-119" width="80" height="80" as="geometry" />
        </mxCell>
        <mxCell id="t8O8MiKSA82UMRmncftp-4" value="STAFF" style="whiteSpace=wrap;html=1;rounded=0;" vertex="1" parent="1">
          <mxGeometry x="580" y="-109" width="120" height="60" as="geometry" />
        </mxCell>
        <mxCell id="t8O8MiKSA82UMRmncftp-7" style="edgeStyle=none;curved=1;rounded=0;orthogonalLoop=1;jettySize=auto;html=1;exitX=0.5;exitY=1;exitDx=0;exitDy=0;entryX=0.25;entryY=0;entryDx=0;entryDy=0;fontSize=12;startSize=8;endSize=8;endArrow=none;endFill=0;" edge="1" parent="1" source="t8O8MiKSA82UMRmncftp-8" target="t8O8MiKSA82UMRmncftp-4">
          <mxGeometry relative="1" as="geometry" />
        </mxCell>
        <mxCell id="t8O8MiKSA82UMRmncftp-8" value="&lt;u&gt;STAFF ID&lt;/u&gt;" style="ellipse;whiteSpace=wrap;html=1;" vertex="1" parent="1">
          <mxGeometry x="505" y="-209" width="124" height="53" as="geometry" />
        </mxCell>
        <mxCell id="t8O8MiKSA82UMRmncftp-9" style="edgeStyle=none;curved=1;rounded=0;orthogonalLoop=1;jettySize=auto;html=1;exitX=0.5;exitY=1;exitDx=0;exitDy=0;entryX=0.75;entryY=0;entryDx=0;entryDy=0;fontSize=12;startSize=8;endSize=8;endArrow=none;endFill=0;" edge="1" parent="1" source="t8O8MiKSA82UMRmncftp-10" target="t8O8MiKSA82UMRmncftp-4">
          <mxGeometry relative="1" as="geometry" />
        </mxCell>
        <mxCell id="t8O8MiKSA82UMRmncftp-10" value="NAME" style="ellipse;whiteSpace=wrap;html=1;" vertex="1" parent="1">
          <mxGeometry x="670" y="-213" width="124" height="53" as="geometry" />
        </mxCell>
        <mxCell id="t8O8MiKSA82UMRmncftp-13" value="" style="endArrow=none;html=1;rounded=0;fontSize=12;startSize=8;endSize=8;curved=1;entryX=0;entryY=0.5;entryDx=0;entryDy=0;exitX=1;exitY=0.5;exitDx=0;exitDy=0;startArrow=classic;startFill=1;" edge="1" parent="1" source="t8O8MiKSA82UMRmncftp-1" target="t8O8MiKSA82UMRmncftp-3">
          <mxGeometry width="50" height="50" relative="1" as="geometry">
            <mxPoint x="175" y="-53" as="sourcePoint" />
            <mxPoint x="225" y="-103" as="targetPoint" />
          </mxGeometry>
        </mxCell>
        <mxCell id="MVjngsIkQV17kesjKEnM-2" style="edgeStyle=none;curved=1;rounded=0;orthogonalLoop=1;jettySize=auto;html=1;exitX=0.5;exitY=1;exitDx=0;exitDy=0;entryX=0.25;entryY=0;entryDx=0;entryDy=0;fontSize=12;startSize=8;endSize=8;endArrow=none;endFill=0;" edge="1" parent="1" source="MVjngsIkQV17kesjKEnM-1" target="t8O8MiKSA82UMRmncftp-1">
          <mxGeometry relative="1" as="geometry" />
        </mxCell>
        <mxCell id="MVjngsIkQV17kesjKEnM-1" value="NAME" style="ellipse;whiteSpace=wrap;html=1;" vertex="1" parent="1">
          <mxGeometry x="94" y="-213" width="124" height="53" as="geometry" />
        </mxCell>
      </root>
    </mxGraphModel>
  </diagram>
  <diagram id="7ald46ibX_3LDpe7iq17" name="Page-5">
    <mxGraphModel dx="1042" dy="1026" grid="0" gridSize="10" guides="1" tooltips="1" connect="1" arrows="1" fold="1" page="0" pageScale="1" pageWidth="1169" pageHeight="827" math="0" shadow="0">
      <root>
        <mxCell id="0" />
        <mxCell id="1" parent="0" />
        <mxCell id="MB6WQRS2mNJc9-dH-lZ6-3" value="" style="edgeStyle=none;curved=1;rounded=0;orthogonalLoop=1;jettySize=auto;html=1;fontSize=12;startSize=8;endSize=8;endArrow=none;endFill=0;" edge="1" parent="1" source="MB6WQRS2mNJc9-dH-lZ6-1" target="MB6WQRS2mNJc9-dH-lZ6-2">
          <mxGeometry relative="1" as="geometry" />
        </mxCell>
        <mxCell id="MB6WQRS2mNJc9-dH-lZ6-7" value="" style="edgeStyle=none;curved=1;rounded=0;orthogonalLoop=1;jettySize=auto;html=1;fontSize=12;startSize=8;endSize=8;startArrow=classic;startFill=1;endArrow=none;endFill=0;" edge="1" parent="1" source="MB6WQRS2mNJc9-dH-lZ6-1" target="MB6WQRS2mNJc9-dH-lZ6-6">
          <mxGeometry relative="1" as="geometry" />
        </mxCell>
        <mxCell id="MB6WQRS2mNJc9-dH-lZ6-1" value="CUSTOMER&amp;nbsp;" style="rounded=0;whiteSpace=wrap;html=1;" vertex="1" parent="1">
          <mxGeometry x="140" y="170" width="120" height="60" as="geometry" />
        </mxCell>
        <mxCell id="MB6WQRS2mNJc9-dH-lZ6-5" value="" style="edgeStyle=none;curved=1;rounded=0;orthogonalLoop=1;jettySize=auto;html=1;fontSize=12;startSize=8;endSize=8;endArrow=none;endFill=0;" edge="1" parent="1" source="MB6WQRS2mNJc9-dH-lZ6-2" target="MB6WQRS2mNJc9-dH-lZ6-4">
          <mxGeometry relative="1" as="geometry" />
        </mxCell>
        <mxCell id="MB6WQRS2mNJc9-dH-lZ6-2" value="SUPPLY TO" style="rhombus;whiteSpace=wrap;html=1;rounded=0;" vertex="1" parent="1">
          <mxGeometry x="160" y="340" width="80" height="80" as="geometry" />
        </mxCell>
        <mxCell id="MB6WQRS2mNJc9-dH-lZ6-4" value="PRODUCT" style="whiteSpace=wrap;html=1;rounded=0;" vertex="1" parent="1">
          <mxGeometry x="340" y="350" width="120" height="60" as="geometry" />
        </mxCell>
        <mxCell id="MB6WQRS2mNJc9-dH-lZ6-9" value="" style="edgeStyle=none;curved=1;rounded=0;orthogonalLoop=1;jettySize=auto;html=1;fontSize=12;startSize=8;endSize=8;endArrow=none;endFill=0;" edge="1" parent="1" source="MB6WQRS2mNJc9-dH-lZ6-6" target="MB6WQRS2mNJc9-dH-lZ6-8">
          <mxGeometry relative="1" as="geometry" />
        </mxCell>
        <mxCell id="MB6WQRS2mNJc9-dH-lZ6-6" value="PLACES" style="rhombus;whiteSpace=wrap;html=1;rounded=0;" vertex="1" parent="1">
          <mxGeometry x="400" y="160" width="80" height="80" as="geometry" />
        </mxCell>
        <mxCell id="MB6WQRS2mNJc9-dH-lZ6-11" value="" style="edgeStyle=none;curved=1;rounded=0;orthogonalLoop=1;jettySize=auto;html=1;fontSize=12;startSize=8;endSize=8;endArrow=none;endFill=0;" edge="1" parent="1" source="MB6WQRS2mNJc9-dH-lZ6-8" target="MB6WQRS2mNJc9-dH-lZ6-10">
          <mxGeometry relative="1" as="geometry" />
        </mxCell>
        <mxCell id="MB6WQRS2mNJc9-dH-lZ6-18" value="" style="edgeStyle=orthogonalEdgeStyle;rounded=0;orthogonalLoop=1;jettySize=auto;html=1;fontSize=12;startSize=8;endSize=8;exitX=0.25;exitY=0;exitDx=0;exitDy=0;entryX=0.5;entryY=1;entryDx=0;entryDy=0;endArrow=none;endFill=0;" edge="1" parent="1" source="MB6WQRS2mNJc9-dH-lZ6-8" target="MB6WQRS2mNJc9-dH-lZ6-17">
          <mxGeometry relative="1" as="geometry" />
        </mxCell>
        <mxCell id="MB6WQRS2mNJc9-dH-lZ6-26" value="" style="edgeStyle=orthogonalEdgeStyle;rounded=0;orthogonalLoop=1;jettySize=auto;html=1;fontSize=12;startSize=8;endSize=8;startArrow=classic;startFill=1;endArrow=none;endFill=0;" edge="1" parent="1" source="MB6WQRS2mNJc9-dH-lZ6-8" target="MB6WQRS2mNJc9-dH-lZ6-25">
          <mxGeometry relative="1" as="geometry" />
        </mxCell>
        <mxCell id="MB6WQRS2mNJc9-dH-lZ6-8" value="ORDERS" style="whiteSpace=wrap;html=1;rounded=0;" vertex="1" parent="1">
          <mxGeometry x="580" y="170" width="120" height="60" as="geometry" />
        </mxCell>
        <mxCell id="MB6WQRS2mNJc9-dH-lZ6-12" value="" style="edgeStyle=none;curved=1;rounded=0;orthogonalLoop=1;jettySize=auto;html=1;fontSize=12;startSize=8;endSize=8;endArrow=none;endFill=0;" edge="1" parent="1" source="MB6WQRS2mNJc9-dH-lZ6-10" target="MB6WQRS2mNJc9-dH-lZ6-4">
          <mxGeometry relative="1" as="geometry" />
        </mxCell>
        <mxCell id="MB6WQRS2mNJc9-dH-lZ6-10" value="CONTAINS" style="rhombus;whiteSpace=wrap;html=1;rounded=0;" vertex="1" parent="1">
          <mxGeometry x="600" y="340" width="80" height="80" as="geometry" />
        </mxCell>
        <mxCell id="MB6WQRS2mNJc9-dH-lZ6-20" value="" style="edgeStyle=none;curved=1;rounded=0;orthogonalLoop=1;jettySize=auto;html=1;fontSize=12;startSize=8;endSize=8;endArrow=none;endFill=0;" edge="1" parent="1" source="MB6WQRS2mNJc9-dH-lZ6-17" target="MB6WQRS2mNJc9-dH-lZ6-19">
          <mxGeometry relative="1" as="geometry" />
        </mxCell>
        <mxCell id="MB6WQRS2mNJc9-dH-lZ6-17" value="MANAGES" style="rhombus;whiteSpace=wrap;html=1;rounded=0;" vertex="1" parent="1">
          <mxGeometry x="469" y="-4" width="80" height="80" as="geometry" />
        </mxCell>
        <mxCell id="MB6WQRS2mNJc9-dH-lZ6-22" value="" style="edgeStyle=none;curved=1;rounded=0;orthogonalLoop=1;jettySize=auto;html=1;fontSize=12;startSize=8;endSize=8;startArrow=classic;startFill=1;endArrow=none;endFill=0;" edge="1" parent="1">
          <mxGeometry relative="1" as="geometry">
            <mxPoint x="309" y="4" as="sourcePoint" />
            <mxPoint x="309" y="-106" as="targetPoint" />
          </mxGeometry>
        </mxCell>
        <mxCell id="MB6WQRS2mNJc9-dH-lZ6-19" value="EMPLOYEE" style="whiteSpace=wrap;html=1;rounded=0;" vertex="1" parent="1">
          <mxGeometry x="249" y="6" width="120" height="60" as="geometry" />
        </mxCell>
        <mxCell id="MB6WQRS2mNJc9-dH-lZ6-24" value="" style="edgeStyle=none;curved=1;rounded=0;orthogonalLoop=1;jettySize=auto;html=1;fontSize=12;startSize=8;endSize=8;endArrow=none;endFill=0;" edge="1" parent="1" source="MB6WQRS2mNJc9-dH-lZ6-21" target="MB6WQRS2mNJc9-dH-lZ6-23">
          <mxGeometry relative="1" as="geometry" />
        </mxCell>
        <mxCell id="MB6WQRS2mNJc9-dH-lZ6-21" value="UPDATE" style="rhombus;whiteSpace=wrap;html=1;rounded=0;" vertex="1" parent="1">
          <mxGeometry x="269" y="-184" width="80" height="80" as="geometry" />
        </mxCell>
        <mxCell id="MB6WQRS2mNJc9-dH-lZ6-23" value="QUANTITY&amp;nbsp;" style="whiteSpace=wrap;html=1;rounded=0;" vertex="1" parent="1">
          <mxGeometry x="449" y="-174" width="120" height="60" as="geometry" />
        </mxCell>
        <mxCell id="MB6WQRS2mNJc9-dH-lZ6-28" value="" style="edgeStyle=none;curved=1;rounded=0;orthogonalLoop=1;jettySize=auto;html=1;fontSize=12;startSize=8;endSize=8;" edge="1" parent="1" source="MB6WQRS2mNJc9-dH-lZ6-25" target="MB6WQRS2mNJc9-dH-lZ6-27">
          <mxGeometry relative="1" as="geometry" />
        </mxCell>
        <mxCell id="MB6WQRS2mNJc9-dH-lZ6-25" value="HAS" style="rhombus;whiteSpace=wrap;html=1;rounded=0;" vertex="1" parent="1">
          <mxGeometry x="690" y="-6" width="80" height="80" as="geometry" />
        </mxCell>
        <mxCell id="MB6WQRS2mNJc9-dH-lZ6-27" value="PAYMENT&amp;nbsp;" style="whiteSpace=wrap;html=1;rounded=0;" vertex="1" parent="1">
          <mxGeometry x="670" y="-175" width="120" height="60" as="geometry" />
        </mxCell>
      </root>
    </mxGraphModel>
  </diagram>
</mxfile>
